<?xml version="1.0" standalone="no"?>
<!DOCTYPE svg PUBLIC "-//W3C//DTD SVG 20010904//EN"
 "http://www.w3.org/TR/2001/REC-SVG-20010904/DTD/svg10.dtd">
<svg version="1.0" xmlns="http://www.w3.org/2000/svg"
 width="681.000000pt" height="681.000000pt" viewBox="0 0 681.000000 681.000000"
 preserveAspectRatio="xMidYMid meet">
<metadata>
Created by potrace 1.14, written by Peter Selinger 2001-2017
</metadata>
<g transform="translate(0.000000,681.000000) scale(0.100000,-0.100000)"
fill="#000000" stroke="none">
<path d="M2274 6589 c-121 -25 -205 -70 -294 -159 -78 -78 -114 -132 -149
-223 -31 -85 -34 -122 -36 -467 -2 -179 -3 -327 -4 -330 0 -3 -292 -5 -649 -5
l-647 -1 -85 -30 c-47 -17 -112 -47 -143 -68 -77 -51 -160 -145 -202 -228 -70
-141 -66 17 -63 -2298 2 -1147 6 -2095 10 -2108 17 -56 22 -69 41 -112 79
-173 238 -301 422 -341 48 -10 635 -12 2900 -13 1562 -1 2872 3 2910 7 226 26
412 176 493 397 l27 75 3 2100 c2 2097 2 2100 -19 2175 -59 214 -218 370 -439
431 -33 10 -210 13 -685 15 -352 1 -642 2 -645 3 -3 1 -5 142 -5 314 0 171 -3
339 -8 372 -28 192 -176 386 -351 459 -120 50 -86 49 -1231 50 -954 1 -1079
-1 -1151 -15z m2242 -415 c32 -19 58 -46 74 -74 l24 -45 1 -318 c0 -205 -3
-321 -10 -325 -9 -6 -2380 -11 -2400 -5 -7 2 -10 115 -10 326 1 290 3 325 19
357 33 63 75 96 139 109 16 3 498 6 1071 6 l1043 0 49 -31z m-3321 -1318 c-4
-166 -13 -214 -66 -322 -24 -48 -56 -92 -109 -144 -134 -134 -259 -180 -487
-180 l-133 0 0 43 c-2 212 1 578 6 602 10 58 67 120 128 141 20 7 145 11 347
11 l317 0 -3 -151z m4016 145 c0 -3 2 -76 4 -161 2 -98 9 -183 19 -230 10 -41
19 -82 21 -92 8 -37 67 -166 102 -223 105 -171 245 -297 428 -385 169 -81 263
-99 528 -100 l97 0 0 -1003 0 -1004 -142 -1 c-217 -2 -332 -25 -488 -100 -256
-123 -457 -362 -529 -633 -29 -109 -33 -139 -36 -304 -2 -82 -4 -152 -4 -155
-1 -3 -814 -5 -1808 -5 l-1807 0 -2 160 c-2 170 -3 177 -33 297 -67 262 -257
497 -508 630 -54 29 -207 83 -258 92 -93 15 -133 18 -258 18 l-137 0 0 81 c-2
380 0 1920 2 1922 2 2 77 5 168 8 91 3 181 8 200 12 136 25 295 92 405 171
183 130 328 336 384 544 28 106 33 146 36 310 2 80 4 148 4 151 1 7 3611 7
3612 0z m1074 -6 c44 -19 78 -52 101 -97 24 -47 24 -49 24 -368 l0 -321 -137
2 c-232 2 -350 46 -483 179 -85 85 -141 185 -163 292 -14 64 -23 300 -13 316
7 12 644 9 671 -3z m-5589 -3600 c65 -11 61 -10 123 -34 104 -42 209 -125 272
-217 77 -112 106 -226 105 -413 l-1 -126 -308 0 c-215 0 -322 4 -351 12 -53
16 -109 71 -125 122 -11 38 -18 641 -8 658 6 10 228 8 293 -2z m5712 -300 c2
-213 -1 -323 -9 -352 -13 -49 -80 -118 -126 -130 -15 -4 -170 -7 -343 -8
l-315 0 0 130 c-1 72 5 158 12 191 43 213 205 390 410 450 74 22 144 29 268
29 l100 -1 3 -309z"/>
<path d="M2505 3990 c-44 -10 -109 -30 -144 -44 -258 -105 -462 -344 -531
-624 -90 -365 0 -690 286 -1030 86 -102 317 -327 469 -457 32 -27 63 -55 69
-60 6 -6 38 -33 71 -60 33 -28 62 -53 65 -56 3 -3 43 -36 90 -74 47 -38 87
-72 90 -75 3 -3 32 -27 65 -55 33 -27 62 -52 65 -55 3 -3 32 -28 65 -55 33
-28 62 -52 65 -55 19 -20 89 -69 107 -74 98 -31 165 -2 317 137 13 12 33 29
43 37 10 8 43 35 73 60 30 25 59 50 65 55 7 6 33 28 60 50 26 22 53 45 59 50
6 6 67 57 136 115 69 57 127 107 130 110 3 3 41 36 85 75 107 93 317 303 393
392 218 257 324 524 315 793 -14 433 -275 781 -670 892 -95 26 -322 32 -413 9
-165 -41 -306 -123 -435 -255 l-90 -92 -85 86 c-108 110 -135 130 -239 184
-78 40 -146 65 -226 82 -71 15 -270 12 -350 -6z m377 -423 c132 -64 251 -205
314 -372 36 -99 89 -156 157 -173 108 -28 202 24 242 134 49 130 130 256 213
331 277 249 705 97 791 -282 71 -312 -86 -588 -580 -1020 -25 -22 -74 -65
-110 -96 -35 -31 -125 -107 -199 -168 -74 -62 -144 -120 -155 -129 -11 -9 -48
-41 -82 -70 -33 -28 -64 -52 -67 -52 -7 0 -377 307 -536 445 -497 431 -668
669 -674 940 -3 144 50 294 141 395 100 112 217 161 374 156 86 -3 103 -6 171
-39z"/>
</g>
</svg>
